<svg xmlns="http://www.w3.org/2000/svg" version="1.1" xmlns:xlink="http://www.w3.org/1999/xlink" xmlns:svgjs="http://svgjs.dev/svgjs" viewBox="0 0 1422 800"><g stroke-width="1.5" stroke="hsl(0, 0%, 0%)" fill="none" stroke-linecap="round"><path d="M 0 2553 Q 355.5 400 711 400 Q 1066.5 400 1422 2553" stroke-dasharray="69 18"></path><path d="M 0 2530 Q 355.5 400 711 400 Q 1066.5 400 1422 2530" stroke-dasharray="25 46"></path><path d="M 0 2507 Q 355.5 400 711 400 Q 1066.5 400 1422 2507" stroke-dasharray="62 63"></path><path d="M 0 2484 Q 355.5 400 711 400 Q 1066.5 400 1422 2484" stroke-dasharray="57 58"></path><path d="M 0 2461 Q 355.5 400 711 400 Q 1066.5 400 1422 2461" stroke-dasharray="6 51"></path><path d="M 0 2438 Q 355.5 400 711 400 Q 1066.5 400 1422 2438" stroke-dasharray="77 84"></path><path d="M 0 2415 Q 355.5 400 711 400 Q 1066.5 400 1422 2415" stroke-dasharray="85 46"></path><path d="M 0 2392 Q 355.5 400 711 400 Q 1066.5 400 1422 2392" stroke-dasharray="41 64"></path><path d="M 0 2369 Q 355.5 400 711 400 Q 1066.5 400 1422 2369" stroke-dasharray="1 12"></path><path d="M 0 2346 Q 355.5 400 711 400 Q 1066.5 400 1422 2346" stroke-dasharray="7 75"></path><path d="M 0 2323 Q 355.5 400 711 400 Q 1066.5 400 1422 2323" stroke-dasharray="22 82"></path><path d="M 0 2300 Q 355.5 400 711 400 Q 1066.5 400 1422 2300" stroke-dasharray="70 45"></path><path d="M 0 2277 Q 355.5 400 711 400 Q 1066.5 400 1422 2277" stroke-dasharray="51 23"></path><path d="M 0 2254 Q 355.5 400 711 400 Q 1066.5 400 1422 2254" stroke-dasharray="23 52"></path><path d="M 0 2231 Q 355.5 400 711 400 Q 1066.5 400 1422 2231" stroke-dasharray="72 31"></path><path d="M 0 2208 Q 355.5 400 711 400 Q 1066.5 400 1422 2208" stroke-dasharray="68 77"></path><path d="M 0 2185 Q 355.5 400 711 400 Q 1066.5 400 1422 2185" stroke-dasharray="80 51"></path><path d="M 0 2162 Q 355.5 400 711 400 Q 1066.5 400 1422 2162" stroke-dasharray="29 58"></path><path d="M 0 2139 Q 355.5 400 711 400 Q 1066.5 400 1422 2139" stroke-dasharray="60 12"></path><path d="M 0 2116 Q 355.5 400 711 400 Q 1066.5 400 1422 2116" stroke-dasharray="1 58"></path><path d="M 0 2093 Q 355.5 400 711 400 Q 1066.5 400 1422 2093" stroke-dasharray="13 12"></path><path d="M 0 2070 Q 355.5 400 711 400 Q 1066.5 400 1422 2070" stroke-dasharray="67 25"></path><path d="M 0 2047 Q 355.5 400 711 400 Q 1066.5 400 1422 2047" stroke-dasharray="17 23"></path><path d="M 0 2024 Q 355.5 400 711 400 Q 1066.5 400 1422 2024" stroke-dasharray="80 60"></path><path d="M 0 2001 Q 355.5 400 711 400 Q 1066.5 400 1422 2001" stroke-dasharray="14 19"></path><path d="M 0 1978 Q 355.5 400 711 400 Q 1066.5 400 1422 1978" stroke-dasharray="40 64"></path><path d="M 0 1955 Q 355.5 400 711 400 Q 1066.5 400 1422 1955" stroke-dasharray="11 22"></path><path d="M 0 1932 Q 355.5 400 711 400 Q 1066.5 400 1422 1932" stroke-dasharray="66 50"></path><path d="M 0 1909 Q 355.5 400 711 400 Q 1066.5 400 1422 1909" stroke-dasharray="73 43"></path><path d="M 0 1886 Q 355.5 400 711 400 Q 1066.5 400 1422 1886" stroke-dasharray="61 55"></path><path d="M 0 1863 Q 355.5 400 711 400 Q 1066.5 400 1422 1863" stroke-dasharray="10 3"></path><path d="M 0 1840 Q 355.5 400 711 400 Q 1066.5 400 1422 1840" stroke-dasharray="2 61"></path><path d="M 0 1817 Q 355.5 400 711 400 Q 1066.5 400 1422 1817" stroke-dasharray="53 71"></path><path d="M 0 1794 Q 355.5 400 711 400 Q 1066.5 400 1422 1794" stroke-dasharray="84 33"></path><path d="M 0 1771 Q 355.5 400 711 400 Q 1066.5 400 1422 1771" stroke-dasharray="81 65"></path><path d="M 0 1748 Q 355.5 400 711 400 Q 1066.5 400 1422 1748" stroke-dasharray="82 30"></path><path d="M 0 1725 Q 355.5 400 711 400 Q 1066.5 400 1422 1725" stroke-dasharray="73 29"></path><path d="M 0 1702 Q 355.5 400 711 400 Q 1066.5 400 1422 1702" stroke-dasharray="36 3"></path><path d="M 0 1679 Q 355.5 400 711 400 Q 1066.5 400 1422 1679" stroke-dasharray="32 78"></path><path d="M 0 1656 Q 355.5 400 711 400 Q 1066.5 400 1422 1656" stroke-dasharray="72 77"></path><path d="M 0 1633 Q 355.5 400 711 400 Q 1066.5 400 1422 1633" stroke-dasharray="64 78"></path><path d="M 0 1610 Q 355.5 400 711 400 Q 1066.5 400 1422 1610" stroke-dasharray="34 28"></path><path d="M 0 1587 Q 355.5 400 711 400 Q 1066.5 400 1422 1587" stroke-dasharray="59 81"></path><path d="M 0 1564 Q 355.5 400 711 400 Q 1066.5 400 1422 1564" stroke-dasharray="42 17"></path><path d="M 0 1541 Q 355.5 400 711 400 Q 1066.5 400 1422 1541" stroke-dasharray="69 62"></path><path d="M 0 1518 Q 355.5 400 711 400 Q 1066.5 400 1422 1518" stroke-dasharray="13 35"></path><path d="M 0 1495 Q 355.5 400 711 400 Q 1066.5 400 1422 1495" stroke-dasharray="57 7"></path><path d="M 0 1472 Q 355.5 400 711 400 Q 1066.5 400 1422 1472" stroke-dasharray="62 8"></path><path d="M 0 1449 Q 355.5 400 711 400 Q 1066.5 400 1422 1449" stroke-dasharray="25 71"></path><path d="M 0 1426 Q 355.5 400 711 400 Q 1066.5 400 1422 1426" stroke-dasharray="68 58"></path><path d="M 0 1403 Q 355.5 400 711 400 Q 1066.5 400 1422 1403" stroke-dasharray="38 36"></path><path d="M 0 1380 Q 355.5 400 711 400 Q 1066.5 400 1422 1380" stroke-dasharray="60 72"></path><path d="M 0 1357 Q 355.5 400 711 400 Q 1066.5 400 1422 1357" stroke-dasharray="52 71"></path><path d="M 0 1334 Q 355.5 400 711 400 Q 1066.5 400 1422 1334" stroke-dasharray="66 32"></path><path d="M 0 1311 Q 355.5 400 711 400 Q 1066.5 400 1422 1311" stroke-dasharray="17 77"></path><path d="M 0 1288 Q 355.5 400 711 400 Q 1066.5 400 1422 1288" stroke-dasharray="43 15"></path><path d="M 0 1265 Q 355.5 400 711 400 Q 1066.5 400 1422 1265" stroke-dasharray="73 48"></path><path d="M 0 1242 Q 355.5 400 711 400 Q 1066.5 400 1422 1242" stroke-dasharray="47 3"></path><path d="M 0 1219 Q 355.5 400 711 400 Q 1066.5 400 1422 1219" stroke-dasharray="46 69"></path><path d="M 0 1196 Q 355.5 400 711 400 Q 1066.5 400 1422 1196" stroke-dasharray="39 49"></path><path d="M 0 1173 Q 355.5 400 711 400 Q 1066.5 400 1422 1173" stroke-dasharray="66 47"></path><path d="M 0 1150 Q 355.5 400 711 400 Q 1066.5 400 1422 1150" stroke-dasharray="2 13"></path><path d="M 0 1127 Q 355.5 400 711 400 Q 1066.5 400 1422 1127" stroke-dasharray="10 66"></path><path d="M 0 1104 Q 355.5 400 711 400 Q 1066.5 400 1422 1104" stroke-dasharray="19 60"></path><path d="M 0 1081 Q 355.5 400 711 400 Q 1066.5 400 1422 1081" stroke-dasharray="1 37"></path><path d="M 0 1058 Q 355.5 400 711 400 Q 1066.5 400 1422 1058" stroke-dasharray="59 48"></path><path d="M 0 1035 Q 355.5 400 711 400 Q 1066.5 400 1422 1035" stroke-dasharray="60 37"></path><path d="M 0 1012 Q 355.5 400 711 400 Q 1066.5 400 1422 1012" stroke-dasharray="24 40"></path><path d="M 0 989 Q 355.5 400 711 400 Q 1066.5 400 1422 989" stroke-dasharray="85 23"></path><path d="M 0 966 Q 355.5 400 711 400 Q 1066.5 400 1422 966" stroke-dasharray="29 51"></path><path d="M 0 943 Q 355.5 400 711 400 Q 1066.5 400 1422 943" stroke-dasharray="86 86"></path><path d="M 0 920 Q 355.5 400 711 400 Q 1066.5 400 1422 920" stroke-dasharray="24 46"></path><path d="M 0 897 Q 355.5 400 711 400 Q 1066.5 400 1422 897" stroke-dasharray="33 40"></path><path d="M 0 874 Q 355.5 400 711 400 Q 1066.5 400 1422 874" stroke-dasharray="19 14"></path><path d="M 0 851 Q 355.5 400 711 400 Q 1066.5 400 1422 851" stroke-dasharray="46 71"></path><path d="M 0 828 Q 355.5 400 711 400 Q 1066.5 400 1422 828" stroke-dasharray="5 0"></path><path d="M 0 805 Q 355.5 400 711 400 Q 1066.5 400 1422 805" stroke-dasharray="37 19"></path><path d="M 0 782 Q 355.5 400 711 400 Q 1066.5 400 1422 782" stroke-dasharray="34 3"></path><path d="M 0 759 Q 355.5 400 711 400 Q 1066.5 400 1422 759" stroke-dasharray="33 31"></path><path d="M 0 736 Q 355.5 400 711 400 Q 1066.5 400 1422 736" stroke-dasharray="17 46"></path><path d="M 0 713 Q 355.5 400 711 400 Q 1066.5 400 1422 713" stroke-dasharray="53 20"></path><path d="M 0 690 Q 355.5 400 711 400 Q 1066.5 400 1422 690" stroke-dasharray="11 35"></path><path d="M 0 667 Q 355.5 400 711 400 Q 1066.5 400 1422 667" stroke-dasharray="28 54"></path><path d="M 0 644 Q 355.5 400 711 400 Q 1066.5 400 1422 644" stroke-dasharray="73 31"></path><path d="M 0 621 Q 355.5 400 711 400 Q 1066.5 400 1422 621" stroke-dasharray="68 27"></path><path d="M 0 598 Q 355.5 400 711 400 Q 1066.5 400 1422 598" stroke-dasharray="70 32"></path><path d="M 0 575 Q 355.5 400 711 400 Q 1066.5 400 1422 575" stroke-dasharray="40 67"></path><path d="M 0 552 Q 355.5 400 711 400 Q 1066.5 400 1422 552" stroke-dasharray="9 60"></path><path d="M 0 529 Q 355.5 400 711 400 Q 1066.5 400 1422 529" stroke-dasharray="32 15"></path><path d="M 0 506 Q 355.5 400 711 400 Q 1066.5 400 1422 506" stroke-dasharray="59 34"></path><path d="M 0 483 Q 355.5 400 711 400 Q 1066.5 400 1422 483" stroke-dasharray="54 73"></path><path d="M 0 460 Q 355.5 400 711 400 Q 1066.5 400 1422 460" stroke-dasharray="16 74"></path><path d="M 0 437 Q 355.5 400 711 400 Q 1066.5 400 1422 437" stroke-dasharray="64 3"></path><path d="M 0 414 Q 355.5 400 711 400 Q 1066.5 400 1422 414" stroke-dasharray="83 55"></path><path d="M 0 391 Q 355.5 400 711 400 Q 1066.5 400 1422 391" stroke-dasharray="46 75"></path><path d="M 0 368 Q 355.5 400 711 400 Q 1066.5 400 1422 368" stroke-dasharray="1 65"></path><path d="M 0 345 Q 355.5 400 711 400 Q 1066.5 400 1422 345" stroke-dasharray="49 13"></path><path d="M 0 322 Q 355.5 400 711 400 Q 1066.5 400 1422 322" stroke-dasharray="4 39"></path><path d="M 0 299 Q 355.5 400 711 400 Q 1066.5 400 1422 299" stroke-dasharray="28 53"></path><path d="M 0 276 Q 355.5 400 711 400 Q 1066.5 400 1422 276" stroke-dasharray="38 1"></path><path d="M 0 253 Q 355.5 400 711 400 Q 1066.5 400 1422 253" stroke-dasharray="12 10"></path><path d="M 0 230 Q 355.5 400 711 400 Q 1066.5 400 1422 230" stroke-dasharray="1 75"></path><path d="M 0 207 Q 355.5 400 711 400 Q 1066.5 400 1422 207" stroke-dasharray="64 20"></path><path d="M 0 184 Q 355.5 400 711 400 Q 1066.5 400 1422 184" stroke-dasharray="77 62"></path><path d="M 0 161 Q 355.5 400 711 400 Q 1066.5 400 1422 161" stroke-dasharray="54 25"></path><path d="M 0 138 Q 355.5 400 711 400 Q 1066.5 400 1422 138" stroke-dasharray="43 56"></path><path d="M 0 115 Q 355.5 400 711 400 Q 1066.5 400 1422 115" stroke-dasharray="14 25"></path><path d="M 0 92 Q 355.5 400 711 400 Q 1066.5 400 1422 92" stroke-dasharray="27 48"></path><path d="M 0 69 Q 355.5 400 711 400 Q 1066.5 400 1422 69" stroke-dasharray="6 31"></path><path d="M 0 46 Q 355.5 400 711 400 Q 1066.5 400 1422 46" stroke-dasharray="62 67"></path></g></svg>