<svg xmlns="http://www.w3.org/2000/svg" version="1.1" xmlns:xlink="http://www.w3.org/1999/xlink" xmlns:svgjs="http://svgjs.dev/svgjs" viewBox="0 0 800 800"><g stroke-width="1" stroke="hsl(0, 0%, 0%)" fill="none" stroke-linecap="round"><path d="M 0 777 Q 200 400 400 400 Q 600 400 800 777" stroke-dasharray="82 77"></path><path d="M 0 770 Q 200 400 400 400 Q 600 400 800 770" stroke-dasharray="11 40"></path><path d="M 0 763 Q 200 400 400 400 Q 600 400 800 763" stroke-dasharray="90 51"></path><path d="M 0 756 Q 200 400 400 400 Q 600 400 800 756" stroke-dasharray="40 36"></path><path d="M 0 749 Q 200 400 400 400 Q 600 400 800 749" stroke-dasharray="6 96"></path><path d="M 0 742 Q 200 400 400 400 Q 600 400 800 742" stroke-dasharray="84 90"></path><path d="M 0 735 Q 200 400 400 400 Q 600 400 800 735" stroke-dasharray="46 12"></path><path d="M 0 728 Q 200 400 400 400 Q 600 400 800 728" stroke-dasharray="84 17"></path><path d="M 0 721 Q 200 400 400 400 Q 600 400 800 721" stroke-dasharray="39 72"></path><path d="M 0 714 Q 200 400 400 400 Q 600 400 800 714" stroke-dasharray="55 0"></path><path d="M 0 707 Q 200 400 400 400 Q 600 400 800 707" stroke-dasharray="41 15"></path><path d="M 0 700 Q 200 400 400 400 Q 600 400 800 700" stroke-dasharray="94 93"></path><path d="M 0 693 Q 200 400 400 400 Q 600 400 800 693" stroke-dasharray="6 92"></path><path d="M 0 686 Q 200 400 400 400 Q 600 400 800 686" stroke-dasharray="46 86"></path><path d="M 0 679 Q 200 400 400 400 Q 600 400 800 679" stroke-dasharray="55 83"></path><path d="M 0 672 Q 200 400 400 400 Q 600 400 800 672" stroke-dasharray="22 21"></path><path d="M 0 665 Q 200 400 400 400 Q 600 400 800 665" stroke-dasharray="44 10"></path><path d="M 0 658 Q 200 400 400 400 Q 600 400 800 658" stroke-dasharray="91 46"></path><path d="M 0 651 Q 200 400 400 400 Q 600 400 800 651" stroke-dasharray="4 13"></path><path d="M 0 644 Q 200 400 400 400 Q 600 400 800 644" stroke-dasharray="43 9"></path><path d="M 0 637 Q 200 400 400 400 Q 600 400 800 637" stroke-dasharray="67 8"></path><path d="M 0 630 Q 200 400 400 400 Q 600 400 800 630" stroke-dasharray="93 54"></path><path d="M 0 623 Q 200 400 400 400 Q 600 400 800 623" stroke-dasharray="63 14"></path><path d="M 0 616 Q 200 400 400 400 Q 600 400 800 616" stroke-dasharray="53 89"></path><path d="M 0 609 Q 200 400 400 400 Q 600 400 800 609" stroke-dasharray="33 12"></path><path d="M 0 602 Q 200 400 400 400 Q 600 400 800 602" stroke-dasharray="24 9"></path><path d="M 0 595 Q 200 400 400 400 Q 600 400 800 595" stroke-dasharray="81 10"></path><path d="M 0 588 Q 200 400 400 400 Q 600 400 800 588" stroke-dasharray="63 89"></path><path d="M 0 581 Q 200 400 400 400 Q 600 400 800 581" stroke-dasharray="23 55"></path><path d="M 0 574 Q 200 400 400 400 Q 600 400 800 574" stroke-dasharray="15 94"></path><path d="M 0 567 Q 200 400 400 400 Q 600 400 800 567" stroke-dasharray="90 35"></path><path d="M 0 560 Q 200 400 400 400 Q 600 400 800 560" stroke-dasharray="63 37"></path><path d="M 0 553 Q 200 400 400 400 Q 600 400 800 553" stroke-dasharray="54 70"></path><path d="M 0 546 Q 200 400 400 400 Q 600 400 800 546" stroke-dasharray="1 97"></path><path d="M 0 539 Q 200 400 400 400 Q 600 400 800 539" stroke-dasharray="11 78"></path><path d="M 0 532 Q 200 400 400 400 Q 600 400 800 532" stroke-dasharray="14 2"></path><path d="M 0 525 Q 200 400 400 400 Q 600 400 800 525" stroke-dasharray="43 6"></path><path d="M 0 518 Q 200 400 400 400 Q 600 400 800 518" stroke-dasharray="60 23"></path><path d="M 0 511 Q 200 400 400 400 Q 600 400 800 511" stroke-dasharray="94 7"></path><path d="M 0 504 Q 200 400 400 400 Q 600 400 800 504" stroke-dasharray="41 69"></path><path d="M 0 497 Q 200 400 400 400 Q 600 400 800 497" stroke-dasharray="8 81"></path><path d="M 0 490 Q 200 400 400 400 Q 600 400 800 490" stroke-dasharray="96 77"></path><path d="M 0 483 Q 200 400 400 400 Q 600 400 800 483" stroke-dasharray="52 60"></path><path d="M 0 476 Q 200 400 400 400 Q 600 400 800 476" stroke-dasharray="94 80"></path><path d="M 0 469 Q 200 400 400 400 Q 600 400 800 469" stroke-dasharray="90 29"></path><path d="M 0 462 Q 200 400 400 400 Q 600 400 800 462" stroke-dasharray="32 90"></path><path d="M 0 455 Q 200 400 400 400 Q 600 400 800 455" stroke-dasharray="17 59"></path><path d="M 0 448 Q 200 400 400 400 Q 600 400 800 448" stroke-dasharray="73 19"></path><path d="M 0 441 Q 200 400 400 400 Q 600 400 800 441" stroke-dasharray="49 34"></path><path d="M 0 434 Q 200 400 400 400 Q 600 400 800 434" stroke-dasharray="48 7"></path><path d="M 0 427 Q 200 400 400 400 Q 600 400 800 427" stroke-dasharray="53 30"></path><path d="M 0 420 Q 200 400 400 400 Q 600 400 800 420" stroke-dasharray="71 23"></path><path d="M 0 413 Q 200 400 400 400 Q 600 400 800 413" stroke-dasharray="39 77"></path><path d="M 0 406 Q 200 400 400 400 Q 600 400 800 406" stroke-dasharray="9 86"></path><path d="M 0 399 Q 200 400 400 400 Q 600 400 800 399" stroke-dasharray="77 25"></path><path d="M 0 392 Q 200 400 400 400 Q 600 400 800 392" stroke-dasharray="59 4"></path><path d="M 0 385 Q 200 400 400 400 Q 600 400 800 385" stroke-dasharray="98 6"></path><path d="M 0 378 Q 200 400 400 400 Q 600 400 800 378" stroke-dasharray="25 49"></path><path d="M 0 371 Q 200 400 400 400 Q 600 400 800 371" stroke-dasharray="39 50"></path><path d="M 0 364 Q 200 400 400 400 Q 600 400 800 364" stroke-dasharray="67 6"></path><path d="M 0 357 Q 200 400 400 400 Q 600 400 800 357" stroke-dasharray="91 26"></path><path d="M 0 350 Q 200 400 400 400 Q 600 400 800 350" stroke-dasharray="3 57"></path><path d="M 0 343 Q 200 400 400 400 Q 600 400 800 343" stroke-dasharray="25 64"></path><path d="M 0 336 Q 200 400 400 400 Q 600 400 800 336" stroke-dasharray="34 86"></path><path d="M 0 329 Q 200 400 400 400 Q 600 400 800 329" stroke-dasharray="18 5"></path><path d="M 0 322 Q 200 400 400 400 Q 600 400 800 322" stroke-dasharray="95 2"></path><path d="M 0 315 Q 200 400 400 400 Q 600 400 800 315" stroke-dasharray="71 51"></path><path d="M 0 308 Q 200 400 400 400 Q 600 400 800 308" stroke-dasharray="55 48"></path><path d="M 0 301 Q 200 400 400 400 Q 600 400 800 301" stroke-dasharray="86 80"></path><path d="M 0 294 Q 200 400 400 400 Q 600 400 800 294" stroke-dasharray="27 74"></path><path d="M 0 287 Q 200 400 400 400 Q 600 400 800 287" stroke-dasharray="78 14"></path><path d="M 0 280 Q 200 400 400 400 Q 600 400 800 280" stroke-dasharray="81 64"></path><path d="M 0 273 Q 200 400 400 400 Q 600 400 800 273" stroke-dasharray="13 41"></path><path d="M 0 266 Q 200 400 400 400 Q 600 400 800 266" stroke-dasharray="32 1"></path><path d="M 0 259 Q 200 400 400 400 Q 600 400 800 259" stroke-dasharray="95 24"></path><path d="M 0 252 Q 200 400 400 400 Q 600 400 800 252" stroke-dasharray="93 6"></path><path d="M 0 245 Q 200 400 400 400 Q 600 400 800 245" stroke-dasharray="34 57"></path><path d="M 0 238 Q 200 400 400 400 Q 600 400 800 238" stroke-dasharray="39 79"></path><path d="M 0 231 Q 200 400 400 400 Q 600 400 800 231" stroke-dasharray="11 56"></path><path d="M 0 224 Q 200 400 400 400 Q 600 400 800 224" stroke-dasharray="73 9"></path><path d="M 0 217 Q 200 400 400 400 Q 600 400 800 217" stroke-dasharray="79 14"></path><path d="M 0 210 Q 200 400 400 400 Q 600 400 800 210" stroke-dasharray="59 37"></path><path d="M 0 203 Q 200 400 400 400 Q 600 400 800 203" stroke-dasharray="29 74"></path><path d="M 0 196 Q 200 400 400 400 Q 600 400 800 196" stroke-dasharray="4 14"></path><path d="M 0 189 Q 200 400 400 400 Q 600 400 800 189" stroke-dasharray="73 78"></path><path d="M 0 182 Q 200 400 400 400 Q 600 400 800 182" stroke-dasharray="83 46"></path><path d="M 0 175 Q 200 400 400 400 Q 600 400 800 175" stroke-dasharray="21 7"></path><path d="M 0 168 Q 200 400 400 400 Q 600 400 800 168" stroke-dasharray="81 83"></path><path d="M 0 161 Q 200 400 400 400 Q 600 400 800 161" stroke-dasharray="80 35"></path><path d="M 0 154 Q 200 400 400 400 Q 600 400 800 154" stroke-dasharray="6 58"></path><path d="M 0 147 Q 200 400 400 400 Q 600 400 800 147" stroke-dasharray="75 88"></path><path d="M 0 140 Q 200 400 400 400 Q 600 400 800 140" stroke-dasharray="73 32"></path><path d="M 0 133 Q 200 400 400 400 Q 600 400 800 133" stroke-dasharray="75 88"></path><path d="M 0 126 Q 200 400 400 400 Q 600 400 800 126" stroke-dasharray="92 74"></path><path d="M 0 119 Q 200 400 400 400 Q 600 400 800 119" stroke-dasharray="38 86"></path><path d="M 0 112 Q 200 400 400 400 Q 600 400 800 112" stroke-dasharray="15 89"></path><path d="M 0 105 Q 200 400 400 400 Q 600 400 800 105" stroke-dasharray="55 28"></path><path d="M 0 98 Q 200 400 400 400 Q 600 400 800 98" stroke-dasharray="44 64"></path><path d="M 0 91 Q 200 400 400 400 Q 600 400 800 91" stroke-dasharray="34 46"></path><path d="M 0 84 Q 200 400 400 400 Q 600 400 800 84" stroke-dasharray="16 80"></path><path d="M 0 77 Q 200 400 400 400 Q 600 400 800 77" stroke-dasharray="12 41"></path><path d="M 0 70 Q 200 400 400 400 Q 600 400 800 70" stroke-dasharray="56 34"></path><path d="M 0 63 Q 200 400 400 400 Q 600 400 800 63" stroke-dasharray="58 75"></path><path d="M 0 56 Q 200 400 400 400 Q 600 400 800 56" stroke-dasharray="28 57"></path><path d="M 0 49 Q 200 400 400 400 Q 600 400 800 49" stroke-dasharray="75 76"></path><path d="M 0 42 Q 200 400 400 400 Q 600 400 800 42" stroke-dasharray="6 37"></path><path d="M 0 35 Q 200 400 400 400 Q 600 400 800 35" stroke-dasharray="83 16"></path><path d="M 0 28 Q 200 400 400 400 Q 600 400 800 28" stroke-dasharray="18 1"></path><path d="M 0 21 Q 200 400 400 400 Q 600 400 800 21" stroke-dasharray="26 10"></path><path d="M 0 14 Q 200 400 400 400 Q 600 400 800 14" stroke-dasharray="36 81"></path></g></svg>