<svg xmlns="http://www.w3.org/2000/svg" version="1.1" xmlns:xlink="http://www.w3.org/1999/xlink" xmlns:svgjs="http://svgjs.dev/svgjs" viewBox="0 0 800 800" opacity="1"><g stroke-width="2.5" stroke="hsla(0, 0%, 0%, 1.00)" fill="none" stroke-linecap="round" transform="matrix(1,0,0,1,-5,66.58241271972656)"><path d="M10,10C19.821428571428573,21.875,35.41666666666667,78.66666666666667,57.142857142857146,67C78.86904761904762,55.33333333333333,90.47619047619048,-38.708333333333336,114.28571428571429,-46C138.0952380952381,-53.291666666666664,147.61904761904765,33.458333333333336,171.42857142857144,32C195.23809523809524,30.541666666666668,204.76190476190476,-58.208333333333336,228.57142857142858,-53C252.3809523809524,-47.791666666666664,261.9047619047619,59.916666666666664,285.7142857142857,57C309.5238095238095,54.083333333333336,319.0476190476191,-61.583333333333336,342.8571428571429,-67C366.6666666666667,-72.41666666666667,376.1904761904762,19.541666666666668,400,31C423.8095238095238,42.45833333333333,433.33333333333337,-14.708333333333332,457.14285714285717,-12C480.95238095238096,-9.291666666666668,490.47619047619054,46.5,514.2857142857143,44C538.0952380952382,41.5,547.6190476190477,-29.625,571.4285714285714,-24C595.2380952380952,-18.375,604.7619047619047,68.29166666666667,628.5714285714286,71C652.3809523809524,73.70833333333333,661.9047619047619,-8.916666666666666,685.7142857142858,-11C709.5238095238096,-13.083333333333334,719.047619047619,63.916666666666664,742.8571428571429,61C766.6666666666667,58.083333333333336,788.0952380952381,-7.083333333333332,800,-25"></path><path d="M10,10C19.821428571428573,21.875,35.41666666666667,78.66666666666667,57.142857142857146,67C78.86904761904762,55.33333333333333,90.47619047619048,-38.708333333333336,114.28571428571429,-46C138.0952380952381,-53.291666666666664,147.61904761904765,33.458333333333336,171.42857142857144,32C195.23809523809524,30.541666666666668,204.76190476190476,-58.208333333333336,228.57142857142858,-53C252.3809523809524,-47.791666666666664,261.9047619047619,59.916666666666664,285.7142857142857,57C309.5238095238095,54.083333333333336,319.0476190476191,-61.583333333333336,342.8571428571429,-67C366.6666666666667,-72.41666666666667,376.1904761904762,19.541666666666668,400,31C423.8095238095238,42.45833333333333,433.33333333333337,-14.708333333333332,457.14285714285717,-12C480.95238095238096,-9.291666666666668,490.47619047619054,46.5,514.2857142857143,44C538.0952380952382,41.5,547.6190476190477,-29.625,571.4285714285714,-24C595.2380952380952,-18.375,604.7619047619047,68.29166666666667,628.5714285714286,71C652.3809523809524,73.70833333333333,661.9047619047619,-8.916666666666666,685.7142857142858,-11C709.5238095238096,-13.083333333333334,719.047619047619,63.916666666666664,742.8571428571429,61C766.6666666666667,58.083333333333336,788.0952380952381,-7.083333333333332,800,-25" transform="matrix(1,0,0,1,0,663)"></path><path d="M10,10C19.821428571428573,21.875,35.41666666666667,78.66666666666667,57.142857142857146,67C78.86904761904762,55.33333333333333,90.47619047619048,-38.708333333333336,114.28571428571429,-46C138.0952380952381,-53.291666666666664,147.61904761904765,33.458333333333336,171.42857142857144,32C195.23809523809524,30.541666666666668,204.76190476190476,-58.208333333333336,228.57142857142858,-53C252.3809523809524,-47.791666666666664,261.9047619047619,59.916666666666664,285.7142857142857,57C309.5238095238095,54.083333333333336,319.0476190476191,-61.583333333333336,342.8571428571429,-67C366.6666666666667,-72.41666666666667,376.1904761904762,19.541666666666668,400,31C423.8095238095238,42.45833333333333,433.33333333333337,-14.708333333333332,457.14285714285717,-12C480.95238095238096,-9.291666666666668,490.47619047619054,46.5,514.2857142857143,44C538.0952380952382,41.5,547.6190476190477,-29.625,571.4285714285714,-24C595.2380952380952,-18.375,604.7619047619047,68.29166666666667,628.5714285714286,71C652.3809523809524,73.70833333333333,661.9047619047619,-8.916666666666666,685.7142857142858,-11C709.5238095238096,-13.083333333333334,719.047619047619,63.916666666666664,742.8571428571429,61C766.6666666666667,58.083333333333336,788.0952380952381,-7.083333333333332,800,-25" transform="matrix(1,0,0,1,0,612)"></path><path d="M10,10C19.821428571428573,21.875,35.41666666666667,78.66666666666667,57.142857142857146,67C78.86904761904762,55.33333333333333,90.47619047619048,-38.708333333333336,114.28571428571429,-46C138.0952380952381,-53.291666666666664,147.61904761904765,33.458333333333336,171.42857142857144,32C195.23809523809524,30.541666666666668,204.76190476190476,-58.208333333333336,228.57142857142858,-53C252.3809523809524,-47.791666666666664,261.9047619047619,59.916666666666664,285.7142857142857,57C309.5238095238095,54.083333333333336,319.0476190476191,-61.583333333333336,342.8571428571429,-67C366.6666666666667,-72.41666666666667,376.1904761904762,19.541666666666668,400,31C423.8095238095238,42.45833333333333,433.33333333333337,-14.708333333333332,457.14285714285717,-12C480.95238095238096,-9.291666666666668,490.47619047619054,46.5,514.2857142857143,44C538.0952380952382,41.5,547.6190476190477,-29.625,571.4285714285714,-24C595.2380952380952,-18.375,604.7619047619047,68.29166666666667,628.5714285714286,71C652.3809523809524,73.70833333333333,661.9047619047619,-8.916666666666666,685.7142857142858,-11C709.5238095238096,-13.083333333333334,719.047619047619,63.916666666666664,742.8571428571429,61C766.6666666666667,58.083333333333336,788.0952380952381,-7.083333333333332,800,-25" transform="matrix(1,0,0,1,0,561)"></path><path d="M10,10C19.821428571428573,21.875,35.41666666666667,78.66666666666667,57.142857142857146,67C78.86904761904762,55.33333333333333,90.47619047619048,-38.708333333333336,114.28571428571429,-46C138.0952380952381,-53.291666666666664,147.61904761904765,33.458333333333336,171.42857142857144,32C195.23809523809524,30.541666666666668,204.76190476190476,-58.208333333333336,228.57142857142858,-53C252.3809523809524,-47.791666666666664,261.9047619047619,59.916666666666664,285.7142857142857,57C309.5238095238095,54.083333333333336,319.0476190476191,-61.583333333333336,342.8571428571429,-67C366.6666666666667,-72.41666666666667,376.1904761904762,19.541666666666668,400,31C423.8095238095238,42.45833333333333,433.33333333333337,-14.708333333333332,457.14285714285717,-12C480.95238095238096,-9.291666666666668,490.47619047619054,46.5,514.2857142857143,44C538.0952380952382,41.5,547.6190476190477,-29.625,571.4285714285714,-24C595.2380952380952,-18.375,604.7619047619047,68.29166666666667,628.5714285714286,71C652.3809523809524,73.70833333333333,661.9047619047619,-8.916666666666666,685.7142857142858,-11C709.5238095238096,-13.083333333333334,719.047619047619,63.916666666666664,742.8571428571429,61C766.6666666666667,58.083333333333336,788.0952380952381,-7.083333333333332,800,-25" transform="matrix(1,0,0,1,0,510)"></path><path d="M10,10C19.821428571428573,21.875,35.41666666666667,78.66666666666667,57.142857142857146,67C78.86904761904762,55.33333333333333,90.47619047619048,-38.708333333333336,114.28571428571429,-46C138.0952380952381,-53.291666666666664,147.61904761904765,33.458333333333336,171.42857142857144,32C195.23809523809524,30.541666666666668,204.76190476190476,-58.208333333333336,228.57142857142858,-53C252.3809523809524,-47.791666666666664,261.9047619047619,59.916666666666664,285.7142857142857,57C309.5238095238095,54.083333333333336,319.0476190476191,-61.583333333333336,342.8571428571429,-67C366.6666666666667,-72.41666666666667,376.1904761904762,19.541666666666668,400,31C423.8095238095238,42.45833333333333,433.33333333333337,-14.708333333333332,457.14285714285717,-12C480.95238095238096,-9.291666666666668,490.47619047619054,46.5,514.2857142857143,44C538.0952380952382,41.5,547.6190476190477,-29.625,571.4285714285714,-24C595.2380952380952,-18.375,604.7619047619047,68.29166666666667,628.5714285714286,71C652.3809523809524,73.70833333333333,661.9047619047619,-8.916666666666666,685.7142857142858,-11C709.5238095238096,-13.083333333333334,719.047619047619,63.916666666666664,742.8571428571429,61C766.6666666666667,58.083333333333336,788.0952380952381,-7.083333333333332,800,-25" transform="matrix(1,0,0,1,0,459)"></path><path d="M10,10C19.821428571428573,21.875,35.41666666666667,78.66666666666667,57.142857142857146,67C78.86904761904762,55.33333333333333,90.47619047619048,-38.708333333333336,114.28571428571429,-46C138.0952380952381,-53.291666666666664,147.61904761904765,33.458333333333336,171.42857142857144,32C195.23809523809524,30.541666666666668,204.76190476190476,-58.208333333333336,228.57142857142858,-53C252.3809523809524,-47.791666666666664,261.9047619047619,59.916666666666664,285.7142857142857,57C309.5238095238095,54.083333333333336,319.0476190476191,-61.583333333333336,342.8571428571429,-67C366.6666666666667,-72.41666666666667,376.1904761904762,19.541666666666668,400,31C423.8095238095238,42.45833333333333,433.33333333333337,-14.708333333333332,457.14285714285717,-12C480.95238095238096,-9.291666666666668,490.47619047619054,46.5,514.2857142857143,44C538.0952380952382,41.5,547.6190476190477,-29.625,571.4285714285714,-24C595.2380952380952,-18.375,604.7619047619047,68.29166666666667,628.5714285714286,71C652.3809523809524,73.70833333333333,661.9047619047619,-8.916666666666666,685.7142857142858,-11C709.5238095238096,-13.083333333333334,719.047619047619,63.916666666666664,742.8571428571429,61C766.6666666666667,58.083333333333336,788.0952380952381,-7.083333333333332,800,-25" transform="matrix(1,0,0,1,0,408)"></path><path d="M10,10C19.821428571428573,21.875,35.41666666666667,78.66666666666667,57.142857142857146,67C78.86904761904762,55.33333333333333,90.47619047619048,-38.708333333333336,114.28571428571429,-46C138.0952380952381,-53.291666666666664,147.61904761904765,33.458333333333336,171.42857142857144,32C195.23809523809524,30.541666666666668,204.76190476190476,-58.208333333333336,228.57142857142858,-53C252.3809523809524,-47.791666666666664,261.9047619047619,59.916666666666664,285.7142857142857,57C309.5238095238095,54.083333333333336,319.0476190476191,-61.583333333333336,342.8571428571429,-67C366.6666666666667,-72.41666666666667,376.1904761904762,19.541666666666668,400,31C423.8095238095238,42.45833333333333,433.33333333333337,-14.708333333333332,457.14285714285717,-12C480.95238095238096,-9.291666666666668,490.47619047619054,46.5,514.2857142857143,44C538.0952380952382,41.5,547.6190476190477,-29.625,571.4285714285714,-24C595.2380952380952,-18.375,604.7619047619047,68.29166666666667,628.5714285714286,71C652.3809523809524,73.70833333333333,661.9047619047619,-8.916666666666666,685.7142857142858,-11C709.5238095238096,-13.083333333333334,719.047619047619,63.916666666666664,742.8571428571429,61C766.6666666666667,58.083333333333336,788.0952380952381,-7.083333333333332,800,-25" transform="matrix(1,0,0,1,0,357)"></path><path d="M10,10C19.821428571428573,21.875,35.41666666666667,78.66666666666667,57.142857142857146,67C78.86904761904762,55.33333333333333,90.47619047619048,-38.708333333333336,114.28571428571429,-46C138.0952380952381,-53.291666666666664,147.61904761904765,33.458333333333336,171.42857142857144,32C195.23809523809524,30.541666666666668,204.76190476190476,-58.208333333333336,228.57142857142858,-53C252.3809523809524,-47.791666666666664,261.9047619047619,59.916666666666664,285.7142857142857,57C309.5238095238095,54.083333333333336,319.0476190476191,-61.583333333333336,342.8571428571429,-67C366.6666666666667,-72.41666666666667,376.1904761904762,19.541666666666668,400,31C423.8095238095238,42.45833333333333,433.33333333333337,-14.708333333333332,457.14285714285717,-12C480.95238095238096,-9.291666666666668,490.47619047619054,46.5,514.2857142857143,44C538.0952380952382,41.5,547.6190476190477,-29.625,571.4285714285714,-24C595.2380952380952,-18.375,604.7619047619047,68.29166666666667,628.5714285714286,71C652.3809523809524,73.70833333333333,661.9047619047619,-8.916666666666666,685.7142857142858,-11C709.5238095238096,-13.083333333333334,719.047619047619,63.916666666666664,742.8571428571429,61C766.6666666666667,58.083333333333336,788.0952380952381,-7.083333333333332,800,-25" transform="matrix(1,0,0,1,0,306)"></path><path d="M10,10C19.821428571428573,21.875,35.41666666666667,78.66666666666667,57.142857142857146,67C78.86904761904762,55.33333333333333,90.47619047619048,-38.708333333333336,114.28571428571429,-46C138.0952380952381,-53.291666666666664,147.61904761904765,33.458333333333336,171.42857142857144,32C195.23809523809524,30.541666666666668,204.76190476190476,-58.208333333333336,228.57142857142858,-53C252.3809523809524,-47.791666666666664,261.9047619047619,59.916666666666664,285.7142857142857,57C309.5238095238095,54.083333333333336,319.0476190476191,-61.583333333333336,342.8571428571429,-67C366.6666666666667,-72.41666666666667,376.1904761904762,19.541666666666668,400,31C423.8095238095238,42.45833333333333,433.33333333333337,-14.708333333333332,457.14285714285717,-12C480.95238095238096,-9.291666666666668,490.47619047619054,46.5,514.2857142857143,44C538.0952380952382,41.5,547.6190476190477,-29.625,571.4285714285714,-24C595.2380952380952,-18.375,604.7619047619047,68.29166666666667,628.5714285714286,71C652.3809523809524,73.70833333333333,661.9047619047619,-8.916666666666666,685.7142857142858,-11C709.5238095238096,-13.083333333333334,719.047619047619,63.916666666666664,742.8571428571429,61C766.6666666666667,58.083333333333336,788.0952380952381,-7.083333333333332,800,-25" transform="matrix(1,0,0,1,0,255)"></path><path d="M10,10C19.821428571428573,21.875,35.41666666666667,78.66666666666667,57.142857142857146,67C78.86904761904762,55.33333333333333,90.47619047619048,-38.708333333333336,114.28571428571429,-46C138.0952380952381,-53.291666666666664,147.61904761904765,33.458333333333336,171.42857142857144,32C195.23809523809524,30.541666666666668,204.76190476190476,-58.208333333333336,228.57142857142858,-53C252.3809523809524,-47.791666666666664,261.9047619047619,59.916666666666664,285.7142857142857,57C309.5238095238095,54.083333333333336,319.0476190476191,-61.583333333333336,342.8571428571429,-67C366.6666666666667,-72.41666666666667,376.1904761904762,19.541666666666668,400,31C423.8095238095238,42.45833333333333,433.33333333333337,-14.708333333333332,457.14285714285717,-12C480.95238095238096,-9.291666666666668,490.47619047619054,46.5,514.2857142857143,44C538.0952380952382,41.5,547.6190476190477,-29.625,571.4285714285714,-24C595.2380952380952,-18.375,604.7619047619047,68.29166666666667,628.5714285714286,71C652.3809523809524,73.70833333333333,661.9047619047619,-8.916666666666666,685.7142857142858,-11C709.5238095238096,-13.083333333333334,719.047619047619,63.916666666666664,742.8571428571429,61C766.6666666666667,58.083333333333336,788.0952380952381,-7.083333333333332,800,-25" transform="matrix(1,0,0,1,0,204)"></path><path d="M10,10C19.821428571428573,21.875,35.41666666666667,78.66666666666667,57.142857142857146,67C78.86904761904762,55.33333333333333,90.47619047619048,-38.708333333333336,114.28571428571429,-46C138.0952380952381,-53.291666666666664,147.61904761904765,33.458333333333336,171.42857142857144,32C195.23809523809524,30.541666666666668,204.76190476190476,-58.208333333333336,228.57142857142858,-53C252.3809523809524,-47.791666666666664,261.9047619047619,59.916666666666664,285.7142857142857,57C309.5238095238095,54.083333333333336,319.0476190476191,-61.583333333333336,342.8571428571429,-67C366.6666666666667,-72.41666666666667,376.1904761904762,19.541666666666668,400,31C423.8095238095238,42.45833333333333,433.33333333333337,-14.708333333333332,457.14285714285717,-12C480.95238095238096,-9.291666666666668,490.47619047619054,46.5,514.2857142857143,44C538.0952380952382,41.5,547.6190476190477,-29.625,571.4285714285714,-24C595.2380952380952,-18.375,604.7619047619047,68.29166666666667,628.5714285714286,71C652.3809523809524,73.70833333333333,661.9047619047619,-8.916666666666666,685.7142857142858,-11C709.5238095238096,-13.083333333333334,719.047619047619,63.916666666666664,742.8571428571429,61C766.6666666666667,58.083333333333336,788.0952380952381,-7.083333333333332,800,-25" transform="matrix(1,0,0,1,0,153)"></path><path d="M10,10C19.821428571428573,21.875,35.41666666666667,78.66666666666667,57.142857142857146,67C78.86904761904762,55.33333333333333,90.47619047619048,-38.708333333333336,114.28571428571429,-46C138.0952380952381,-53.291666666666664,147.61904761904765,33.458333333333336,171.42857142857144,32C195.23809523809524,30.541666666666668,204.76190476190476,-58.208333333333336,228.57142857142858,-53C252.3809523809524,-47.791666666666664,261.9047619047619,59.916666666666664,285.7142857142857,57C309.5238095238095,54.083333333333336,319.0476190476191,-61.583333333333336,342.8571428571429,-67C366.6666666666667,-72.41666666666667,376.1904761904762,19.541666666666668,400,31C423.8095238095238,42.45833333333333,433.33333333333337,-14.708333333333332,457.14285714285717,-12C480.95238095238096,-9.291666666666668,490.47619047619054,46.5,514.2857142857143,44C538.0952380952382,41.5,547.6190476190477,-29.625,571.4285714285714,-24C595.2380952380952,-18.375,604.7619047619047,68.29166666666667,628.5714285714286,71C652.3809523809524,73.70833333333333,661.9047619047619,-8.916666666666666,685.7142857142858,-11C709.5238095238096,-13.083333333333334,719.047619047619,63.916666666666664,742.8571428571429,61C766.6666666666667,58.083333333333336,788.0952380952381,-7.083333333333332,800,-25" transform="matrix(1,0,0,1,0,102)"></path><path d="M10,10C19.821428571428573,21.875,35.41666666666667,78.66666666666667,57.142857142857146,67C78.86904761904762,55.33333333333333,90.47619047619048,-38.708333333333336,114.28571428571429,-46C138.0952380952381,-53.291666666666664,147.61904761904765,33.458333333333336,171.42857142857144,32C195.23809523809524,30.541666666666668,204.76190476190476,-58.208333333333336,228.57142857142858,-53C252.3809523809524,-47.791666666666664,261.9047619047619,59.916666666666664,285.7142857142857,57C309.5238095238095,54.083333333333336,319.0476190476191,-61.583333333333336,342.8571428571429,-67C366.6666666666667,-72.41666666666667,376.1904761904762,19.541666666666668,400,31C423.8095238095238,42.45833333333333,433.33333333333337,-14.708333333333332,457.14285714285717,-12C480.95238095238096,-9.291666666666668,490.47619047619054,46.5,514.2857142857143,44C538.0952380952382,41.5,547.6190476190477,-29.625,571.4285714285714,-24C595.2380952380952,-18.375,604.7619047619047,68.29166666666667,628.5714285714286,71C652.3809523809524,73.70833333333333,661.9047619047619,-8.916666666666666,685.7142857142858,-11C709.5238095238096,-13.083333333333334,719.047619047619,63.916666666666664,742.8571428571429,61C766.6666666666667,58.083333333333336,788.0952380952381,-7.083333333333332,800,-25" transform="matrix(1,0,0,1,0,51)"></path></g></svg>